<svg viewBox="0 0 74 16" fill="none" xmlns="http://www.w3.org/2000/svg"><path d="M15.96 9.86c-.25 0-.38-.13-.38-.38V7.1c0-.24.13-.38.38-.38h7.1c.25 0 .38.14.38.38v6.87c0 .2-.06.33-.24.44-1.57 1-4.1 1.6-6.47 1.6a7.86 7.86 0 0 1-8.06-8.07A7.9 7.9 0 0 1 16.73 0a8.19 8.19 0 0 1 6.34 2.68c.15.2.13.36-.05.53l-2.15 1.93c-.17.18-.37.16-.53-.04a4.2 4.2 0 0 0-3.6-1.67 4.4 4.4 0 0 0-4.44 4.53c0 2.68 1.86 4.6 4.43 4.6 1.3 0 2.35-.2 3.17-.55V9.86h-3.94ZM1.32 15.66c-.24 0-.38-.13-.38-.38V.75c0-.25.14-.38.38-.38h2.8c.24 0 .37.13.37.38v14.53c0 .25-.13.38-.38.38H1.32ZM72.97 15.2c.18.24.07.46-.24.46h-3.55c-.2 0-.33-.09-.44-.24l-3.52-5.34h-1.24v5.2c0 .25-.14.38-.38.38h-2.79c-.24 0-.38-.13-.38-.38V.75c0-.25.14-.38.38-.38h5.98c3.35 0 5.47 1.8 5.47 4.83a4.51 4.51 0 0 1-3.12 4.52l3.83 5.47ZM66.61 3.66h-2.63v3.44h2.63c1.29 0 2.02-.74 2.02-1.8s-.73-1.64-2.02-1.64Z" fill="#3D6C76"/><path fill-rule="evenodd" clip-rule="evenodd" d="M27.42 7.91A8 8 0 0 0 35.6 16c2.56 0 4.85-1.1 6.35-2.92A8.17 8.17 0 0 0 48.31 16a8.01 8.01 0 0 0 8.17-8.09A8.05 8.05 0 0 0 48.31 0a8.25 8.25 0 0 0-6.36 2.93A8.26 8.26 0 0 0 35.6 0a8.03 8.03 0 0 0-8.18 7.91Zm16.35.24a8.67 8.67 0 0 0 0-.45 4.43 4.43 0 0 1 4.54-4.27 4.42 4.42 0 0 1 4.54 4.48c0 2.73-1.88 4.66-4.54 4.66a4.41 4.41 0 0 1-4.54-4.42Zm-3.63-.45a4.42 4.42 0 0 0-4.54-4.27 4.44 4.44 0 0 0-4.54 4.48c0 2.73 1.9 4.66 4.54 4.66a4.4 4.4 0 0 0 4.53-4.66V7.7Z" fill="#3D6C76"/><path d="M35.55 10.69c1.6 0 2.73-1.16 2.73-2.8a2.65 2.65 0 0 0-2.73-2.68 2.66 2.66 0 0 0-2.72 2.68c0 1.64 1.14 2.8 2.72 2.8ZM48.26 10.69c1.6 0 2.72-1.16 2.72-2.8a2.65 2.65 0 0 0-2.72-2.68 2.66 2.66 0 0 0-2.73 2.68c0 1.64 1.14 2.8 2.73 2.8Z" fill="#0095C0"/></svg>